<svg width="128" height="128" viewBox="0 0 128 128" fill="none" xmlns="http://www.w3.org/2000/svg">
<rect width="128" height="128" fill="#191919"/>
<g clip-path="url(#clip0_6_8)">
<path d="M85.0558 57.5282C84.0631 62.5062 82.5744 64.9842 80.5893 64.9842C79.1534 64.9842 77.9079 64.081 76.8624 62.253C75.817 60.4355 74.4126 57.5283 72.6495 53.5527C70.5482 48.74 68.6158 44.8084 66.8528 41.7355C65.0897 38.6739 62.83 35.9757 60.0742 33.652C57.3076 31.3396 54.0026 30.1719 50.1384 30.1719C40.9843 30.1719 34.5117 36.5153 30.7 49.2023C27.9418 58.4003 26.4176 69.4674 26.1255 82.3805C26.0983 83.5935 26.0845 84.2 26.317 84.6799C26.5228 85.1008 26.8555 85.4449 27.2673 85.6624C27.7368 85.9083 28.3467 85.9083 29.5667 85.9083H37.3254C38.4982 85.9083 39.0846 85.9083 39.5328 85.6887C39.9288 85.4976 40.2567 85.1877 40.4718 84.8013C40.7183 84.364 40.7584 83.7556 40.8389 82.539C41.1493 77.8357 41.7133 73.8927 42.536 70.7106C43.8561 65.5676 45.6196 63.0017 47.8259 63.0017C49.3678 63.0017 50.6981 63.9157 51.7963 65.7329C52.8942 67.5611 54.3831 70.6227 56.2624 74.9399C59.1346 82.0653 62.1119 87.6598 65.1953 91.7235C68.2886 95.7873 72.4807 97.8138 77.7704 97.8138C86.7133 97.8138 92.9643 91.5143 96.5541 78.9155C99.159 69.7472 100.616 58.646 100.92 45.6122C100.949 44.3956 100.963 43.787 100.73 43.3066C100.525 42.8853 100.192 42.541 99.7798 42.3235C99.3103 42.0776 98.6992 42.0776 97.4768 42.0776H89.8411C88.6558 42.0776 88.0633 42.0776 87.6105 42.3024C87.211 42.4989 86.8819 42.8159 86.6686 43.2098C86.4248 43.6563 86.3958 44.2666 86.3383 45.4879C86.1069 50.3844 85.6798 54.3982 85.0558 57.5282Z" fill="white"/>
</g>
<defs>
<clipPath id="clip0_6_8">
<rect width="75" height="68" fill="white" transform="translate(26 30)"/>
</clipPath>
</defs>
</svg>
