<svg width="1024" height="1024" viewBox="0 0 1024 1024" fill="none" xmlns="http://www.w3.org/2000/svg">
<path fill-rule="evenodd" clip-rule="evenodd" d="M120 0C53.7258 0 0 53.7258 0 120V904C0 970.274 53.7258 1024 120 1024H904C970.274 1024 1024 970.274 1024 904V120C1024 53.7258 970.274 0 904 0H120ZM664.393 521.228C682.153 521.228 695.472 499.254 704.353 455.112C709.936 427.355 713.757 391.762 715.827 348.342C716.342 337.512 716.601 332.1 718.782 328.141C720.69 324.648 723.635 321.836 727.209 320.094C731.26 318.101 736.561 318.101 747.165 318.101H815.479C826.416 318.101 831.883 318.101 836.084 320.281C839.77 322.21 842.749 325.263 844.588 328.999C846.667 333.257 846.54 338.651 846.287 349.431L846.286 349.444C843.568 465.024 830.529 563.465 807.224 644.766C775.108 756.488 719.182 812.349 639.172 812.349C591.848 812.349 554.343 794.379 526.667 758.343C499.081 722.308 472.444 672.697 446.747 609.512C429.934 571.229 416.613 544.079 406.792 527.867C396.966 511.753 385.064 503.648 371.269 503.648C351.53 503.648 335.753 526.402 323.942 572.008C316.582 600.225 311.536 635.191 308.759 676.898L308.758 676.915C308.039 687.693 307.679 693.083 305.475 696.959C303.55 700.386 300.616 703.134 297.074 704.829C293.064 706.776 287.818 706.776 277.325 706.776H207.91C196.996 706.776 191.538 706.776 187.338 704.595C183.654 702.666 180.677 699.616 178.836 695.883C176.758 691.632 176.88 686.259 177.122 675.523L177.123 675.493C179.736 560.984 193.373 462.845 218.05 381.28C252.151 268.776 310.06 212.525 391.959 212.525C426.53 212.525 456.099 222.879 480.851 243.385C505.506 263.991 525.723 287.918 541.496 315.067C557.27 342.316 574.558 377.18 593.358 419.857C609.132 455.112 621.696 480.892 631.05 497.009C640.403 513.219 651.547 521.228 664.393 521.228Z" fill="#A7AAAD"/>
</svg>
